# xmcd
#
# Track frame offsets:
#       150
#       24692
#       46360
#       78717
#       99960
#       122127
#       134770
#       178375
#       215717
#       271657
#       321482
#       334475
#
# Disc length: 4736 seconds
#
# Revision: 0
# Processed by: cddbd v1.4b42PL1 Copyright (c) Steve Scherf et al.
# Submitted via: CD-DA_X-Tractor v0.21
#
DISCID=c0127e0c
DTITLE=Grateful Dead - Dick's Picks Vol. 20 cd1
DYEAR=1900
DGENRE=
TTITLE0=(01) Bertha
TTITLE1=(02) New Minglewood Blues
TTITLE2=(03) Ramble On Rose
TTITLE3=(04) Cassidy
TTITLE4=(05) Brown-Eyed Woman
TTITLE5=(06) Mama Tried
TTITLE6=(07) Peggy-O
TTITLE7=(08) Loser
TTITLE8=(09) Let It Grow 
TTITLE9=(10) Sugaree
TTITLE10=(11) Lazy Lightnin' ->
TTITLE11=(12) Supplication
EXTD=
EXTT0=
EXTT1=
EXTT2=
EXTT3=
EXTT4=
EXTT5=
EXTT6=
EXTT7=
EXTT8=
EXTT9=
EXTT10=
EXTT11=
PLAYORDER=
